<svg width="93" height="29" viewBox="0 0 93 29" fill="none" xmlns="http://www.w3.org/2000/svg">
    <path d="M0 16.9886L7.0533 9.61841L12.2692 15.0263L10.4614 16.9886L9.91315 16.4324L8.40172 17.9929L10.8615 20.5887H13.8843L11.0541 17.5912L12.8619 15.6598L25.5163 28.8551H11.3949L0 16.9886Z" fill="black"/>
    <path d="M27.3835 11.857L20.3154 19.2367L15.1144 13.8177L16.9221 11.857L17.4556 12.4282L18.9818 10.8689L16.522 8.25973H13.4992L16.3294 11.2548L14.5068 13.2001L1.86719 0H15.9738L27.3835 11.857Z" fill="url(#paint0_linear_102_3535)"/>
    <path d="M39.7625 13.9315L38.8865 17.734H33.4688L37.8808 1.51436C38.1079 0.639445 38.8217 0.0673828 39.6651 0.0673828H44.5314C45.4074 0.0673828 46.1211 0.639445 46.3157 1.51436L50.7278 17.734H45.31L44.4341 13.9315H39.7625ZM42.7147 6.25912C42.5849 5.61975 42.4551 4.87944 42.4227 4.24007H41.7414C41.6765 4.87944 41.5792 5.61975 41.4494 6.25912L40.606 10.028H43.5257L42.7147 6.25912Z" fill="black"/>
    <path d="M57.1185 12.4172C57.1185 12.9557 57.5078 13.3258 58.1567 13.3258H63.8664L64.126 17.4649C61.5955 17.835 58.6109 17.835 55.8209 17.835C53.3553 17.835 51.7656 16.1861 51.7656 13.8306V0.101074H57.1185V12.4172Z" fill="black"/>
    <path d="M78.2708 17.4984C75.8052 17.8349 72.3664 17.8349 69.4142 17.8349C67.0784 17.8349 65.4238 16.186 65.4238 13.8304V4.00444C65.4238 1.61523 67.0784 0 69.4142 0C72.3339 0 75.8052 -2.08288e-08 78.2708 0.336507L78.0113 4.23999H71.7824C71.166 4.23999 70.7767 4.61015 70.7767 5.14856V6.86475H77.1353V10.5663H70.7767V12.6863C70.7767 13.2247 71.166 13.5949 71.7824 13.5949H78.0113L78.2708 17.4984Z" fill="black"/>
    <path d="M86.5766 4.23999C85.8953 4.23999 85.506 4.61015 85.506 5.14856V7.2349H91.6051V10.9028H85.5384V17.7339H80.1855V4.00444C80.1855 1.61523 81.8725 0 84.2408 0C87.0632 0 90.4696 -4.16577e-08 92.8054 0.370158L92.5459 4.27364H86.5766V4.23999Z" fill="black"/>
    <path d="M33.5645 25.2259C33.8871 25.1877 34.2421 25.1877 34.6292 25.1877C35.5004 25.1877 35.8231 25.6833 35.8231 27.0938C35.8231 28.5044 35.5004 28.9999 34.6292 28.9999C34.2098 28.9999 33.8549 28.9618 33.5645 28.9618V25.2259ZM33.8549 28.6187C34.0807 28.6187 34.3389 28.6187 34.6292 28.6187C35.2746 28.6187 35.5004 28.1994 35.5004 27.0557C35.5004 25.9121 35.2746 25.4546 34.6292 25.4546C34.3389 25.4546 34.0807 25.4546 33.8549 25.4546V28.6187Z" fill="black"/>
    <path d="M41.309 28.885C40.8895 28.9232 40.4055 28.9232 39.986 28.9232C39.6634 28.9232 39.4375 28.6944 39.4375 28.3132V25.8353C39.4375 25.4541 39.6634 25.2253 39.986 25.2253C40.4378 25.2253 40.8895 25.2253 41.309 25.2635L41.2767 25.5303H40.0183C39.8247 25.5303 39.7279 25.6447 39.7279 25.9115V26.8265H41.1154V27.0933H39.7279V28.237C39.7279 28.5038 39.8247 28.6182 40.0183 28.6182H41.2767L41.309 28.885Z" fill="black"/>
    <path d="M46.0518 28.8088C46.0195 28.885 45.9872 28.9232 45.9227 28.9232H45.6C45.5355 28.9232 45.5032 28.885 45.471 28.8088L44.4707 25.2253H44.7934L45.6 28.237C45.6323 28.3895 45.6646 28.5038 45.6968 28.6563H45.8259C45.8582 28.5419 45.8904 28.3895 45.9227 28.237L46.7294 25.2253H47.052L46.0518 28.8088Z" fill="black"/>
    <path d="M52.3109 28.885C51.8914 28.9232 51.4074 28.9232 50.988 28.9232C50.6653 28.9232 50.4395 28.6944 50.4395 28.3132V25.8353C50.4395 25.4541 50.6653 25.2253 50.988 25.2253C51.4397 25.2253 51.8914 25.2253 52.3109 25.2635L52.2786 25.5303H51.0202C50.8267 25.5303 50.7299 25.6447 50.7299 25.9115V26.8265H52.1173V27.0933H50.7299V28.237C50.7299 28.5038 50.8267 28.6182 51.0202 28.6182H52.2786L52.3109 28.885Z" fill="black"/>
    <path d="M56.1508 28.1989C56.1508 28.4657 56.2799 28.5801 56.4735 28.5801H57.635V28.8469C57.2478 28.8851 56.8284 28.8851 56.4089 28.8851C56.0217 28.8851 55.8281 28.6182 55.8281 28.237V25.1873H56.1185V28.1989H56.1508Z" fill="black"/>
    <path d="M63.2491 27.0553C63.2491 28.4658 62.9264 28.9614 62.0552 28.9614C61.184 28.9614 60.8613 28.4658 60.8613 27.0553C60.8613 25.6448 61.184 25.1492 62.0552 25.1492C62.9264 25.1492 63.2491 25.6448 63.2491 27.0553ZM61.1517 27.0553C61.1517 28.237 61.3776 28.6564 62.0552 28.6564C62.7328 28.6564 62.9587 28.237 62.9587 27.0553C62.9587 25.8735 62.7328 25.4541 62.0552 25.4541C61.3776 25.4541 61.1517 25.8735 61.1517 27.0553Z" fill="black"/>
    <path d="M66.8633 25.2254C67.1859 25.1873 67.4118 25.1873 67.8958 25.1873C68.6057 25.1873 68.8638 25.416 68.8638 26.3309C68.8638 27.2077 68.6057 27.4746 67.9281 27.4746C67.6054 27.4746 67.3473 27.4364 67.1537 27.4364V28.9613H66.8633V25.2254ZM67.8958 27.1315C68.3798 27.1315 68.5734 26.979 68.5734 26.2928C68.5734 25.6447 68.4121 25.4541 67.8958 25.4541C67.6054 25.4541 67.315 25.4541 67.1537 25.4541V27.0933H67.8958V27.1315Z" fill="black"/>
    <path d="M75.2859 25.2253C75.3827 25.2253 75.4149 25.3016 75.4149 25.3778L75.544 28.9232H75.2536L75.1245 25.5303H75.0277L74.2211 28.4276C74.1888 28.5038 74.1565 28.5419 74.092 28.5419H73.8016C73.7371 28.5419 73.6725 28.5038 73.6725 28.4276L72.8659 25.5303H72.7691L72.64 28.9232H72.3496L72.4787 25.3778C72.4787 25.2635 72.5109 25.2253 72.6077 25.2253H72.9627C73.0272 25.2253 73.0595 25.2635 73.0917 25.3397L73.7693 27.7414C73.8016 27.8939 73.8661 28.0845 73.8984 28.237H73.9952C74.0275 28.0845 74.092 27.8939 74.1243 27.7414L74.8019 25.3397C74.8341 25.2635 74.8664 25.2253 74.9309 25.2253H75.2859Z" fill="black"/>
    <path d="M81.0609 28.885C80.6414 28.9232 80.1574 28.9232 79.738 28.9232C79.4153 28.9232 79.1895 28.6944 79.1895 28.3132V25.8353C79.1895 25.4541 79.4153 25.2253 79.738 25.2253C80.1897 25.2253 80.6414 25.2253 81.0609 25.2635L81.0286 25.5303H79.7703C79.5767 25.5303 79.4799 25.6447 79.4799 25.9115V26.8265H80.8673V27.0933H79.4799V28.237C79.4799 28.5038 79.5767 28.6182 79.7703 28.6182H81.0286L81.0609 28.885Z" fill="black"/>
    <path d="M86.9326 28.7326C86.9326 28.8469 86.9003 28.8851 86.8035 28.8851H86.4808C86.4163 28.8851 86.3518 28.8469 86.3518 28.7707L85.1579 25.9878C85.0934 25.8734 85.0288 25.6828 84.9966 25.5304H84.8998C84.8998 25.6828 84.8998 25.8353 84.8998 25.9878V28.8851H84.6094V25.3397C84.6094 25.2254 84.6416 25.1873 84.7384 25.1873H85.0611C85.1256 25.1873 85.1902 25.2254 85.1902 25.3016L86.3518 28.0464C86.4163 28.1989 86.4808 28.3895 86.5454 28.542H86.6422C86.6422 28.3514 86.6422 28.1989 86.6422 28.0083V25.1873H86.9326V28.7326Z" fill="black"/>
    <path d="M91.6764 25.5303V28.9232H91.386V25.5303H90.3535V25.2253H92.7412V25.5303H91.6764Z" fill="black"/>
    <path d="M92.9997 21.9553H33.3066V22.6304H92.9997V21.9553Z" fill="black"/>
    <defs>
        <linearGradient id="paint0_linear_102_3535" x1="14.6212" y1="19.2336" x2="14.6212" y2="0.00392222" gradientUnits="userSpaceOnUse">
            <stop stop-color="#2B5972"/>
            <stop offset="1" stop-color="#427FA2"/>
        </linearGradient>
    </defs>
</svg>
